#define askozialogo_width 160
#define askozialogo_height 32
static char askozialogo_bits[] = {
  0x00,0x00,0x00,0x00,0x00,0x00,0x00,0x00,0x00,0x00,0x00,0x00,
  0x00,0x00,0x00,0x00,0x00,0x00,0x00,0x00,0x00,0x00,0x00,0x00,
  0xC0,0x0F,0x00,0x00,0x00,0x00,0x00,0x00,0x00,0x00,0x00,0x00,
  0x00,0x00,0x00,0x00,0x00,0x00,0x00,0x00,0x38,0x00,0x00,0x00,
  0x00,0x00,0x00,0x00,0x00,0x00,0x00,0x00,0x00,0x00,0x00,0x00,
  0x00,0x00,0x00,0x00,0xC6,0x0F,0x00,0x00,0x00,0x00,0x00,0x00,
  0x00,0x00,0x00,0x00,0x00,0x00,0x00,0x00,0x00,0x00,0x00,0x80,
  0xE1,0x3F,0x00,0x00,0x00,0x00,0x00,0x00,0x00,0x00,0x00,0x00,
  0x00,0x00,0x00,0x00,0x00,0x00,0x00,0xC0,0xF8,0x3F,0x00,0x00,
  0x00,0x00,0x00,0x00,0x00,0x00,0x00,0x00,0x00,0x00,0x00,0x00,
  0x00,0x00,0x00,0x60,0xFE,0x3F,0x00,0x00,0x00,0x00,0x00,0x00,
  0x00,0x00,0x00,0x00,0x00,0x00,0x00,0x00,0x00,0x00,0x00,0x30,
  0xFF,0x3F,0x00,0x00,0x00,0x00,0x00,0x00,0x00,0x00,0x00,0x00,
  0x00,0x00,0x00,0x00,0x00,0x00,0x00,0x98,0xCF,0x1F,0x00,0x00,
  0x00,0x00,0x00,0x00,0x00,0x00,0x00,0x00,0x00,0x00,0x00,0x00,
  0x00,0x00,0x00,0xCC,0x03,0x00,0x00,0x00,0x00,0x00,0x00,0x00,
  0x00,0x00,0x00,0x00,0x00,0x00,0x00,0x00,0x00,0x00,0x00,0xE6,
  0x00,0x00,0x00,0x0F,0x00,0x00,0x07,0x00,0x00,0x00,0x80,0x03,
  0x00,0x00,0x00,0x00,0x00,0x00,0x00,0x73,0x00,0x00,0x80,0x1F,
  0x00,0x00,0x07,0x00,0x00,0x00,0x80,0x03,0x00,0x00,0x00,0x00,
  0x00,0x00,0x00,0x39,0x00,0x00,0x80,0x1F,0x00,0x00,0x07,0x00,
  0x00,0x00,0x80,0x03,0x00,0x00,0x00,0x00,0x00,0x00,0x80,0x1D,
  0x00,0x00,0x80,0x1F,0x00,0x00,0x07,0x00,0x00,0x00,0x00,0x00,
  0x00,0x00,0x00,0x00,0x00,0x00,0x80,0x1C,0xCE,0x39,0xC0,0x3F,
  0xE0,0x07,0x87,0x0F,0x0F,0xFC,0x8F,0xC3,0x0F,0x00,0x00,0x00,
  0x00,0x00,0xC0,0x0E,0xCE,0x39,0xC0,0x3F,0xF0,0x1F,0x87,0xC7,
  0x3F,0xFC,0x8F,0xE3,0x3F,0x00,0x00,0x00,0x00,0x00,0x40,0x0E,
  0xCE,0x39,0xC0,0x39,0xF8,0x1F,0xC7,0xE3,0x7F,0xFC,0x8F,0xE3,
  0x7F,0x00,0x00,0x00,0x00,0x00,0x40,0x0E,0x00,0x00,0xE0,0x79,
  0x38,0x10,0xE7,0xE1,0xF1,0x00,0x8F,0x23,0x78,0x00,0x00,0x00,
  0x00,0x00,0x20,0x07,0x00,0x00,0xE0,0x79,0x38,0x00,0xF7,0xF0,
  0xF0,0x80,0x87,0x03,0x70,0x00,0x00,0x00,0x00,0x00,0xA0,0x07,
  0xCE,0x39,0xE0,0x70,0xF8,0x03,0x7F,0xF0,0xF0,0xC0,0x83,0xC3,
  0x7F,0x00,0x00,0x00,0x00,0x00,0xA0,0x07,0xCE,0x39,0xF0,0xF0,
  0xF0,0x0F,0x3F,0xF0,0xE0,0xE0,0x81,0xE3,0x7F,0x00,0x00,0x00,
  0x00,0x00,0xA0,0x0F,0xCE,0x39,0xF0,0xFF,0xE0,0x1F,0x7F,0xF0,
  0xE0,0xF0,0x80,0xF3,0x71,0x00,0x00,0x00,0x00,0x00,0xA0,0x0F,
  0x00,0x00,0xF0,0xFF,0x00,0x1E,0xF7,0xF0,0xF0,0xF8,0x80,0xF3,
  0x70,0x00,0x00,0x00,0x00,0x00,0xA0,0x0F,0x00,0x00,0xF8,0xFF,
  0x01,0x1C,0xE7,0xF1,0xF0,0x78,0x80,0xF3,0x78,0x00,0x00,0x00,
  0x00,0x00,0xA0,0x0F,0xCE,0x39,0x78,0xE0,0x39,0x1E,0xC7,0xE3,
  0x7F,0xFC,0x8F,0xF3,0x7C,0x00,0x00,0x00,0x00,0x00,0xA0,0x0F,
  0xCE,0x39,0x38,0xC0,0xF9,0x1F,0x87,0xE7,0x7F,0xFC,0x8F,0xF3,
  0x77,0x00,0x00,0x00,0x00,0x00,0xA0,0x0F,0xCE,0x39,0x3C,0xC0,
  0xFB,0x0F,0x87,0x8F,0x1F,0xFC,0x8F,0xE3,0x73,0x00,0x00,0x00,
  0x00,0x00,0x40,0x07,0x00,0x00,0x00,0x00,0x00,0x00,0x00,0x00,
  0x00,0x00,0x00,0x00,0x00,0x00,0x00,0x00,0x00,0x00,0x40,0x07,
  0x00,0x00,0x00,0x00,0x00,0x00,0x00,0x00,0x00,0x00,0x00,0x00,
  0x00,0x00,0x00,0x00,0x00,0x00,0x00,0x00,0xCA,0x39,0x00,0x00,
  0x00,0x00,0x00,0x00,0x00,0x00,0x00,0x00,0x00,0x00,0x00,0x00,
  0x00,0x00,0x00,0x00,0xC4,0x39,0x00,0x00,0x00,0x00,0x00,0x00,
  0x00,0x00,0x00,0x00,0x00,0x00,0x00,0x00,0x00,0x00,0x00,0x00,
  0xCA,0x39,0x00,0x00,0x00,0x00,0x00,0x00,0x00,0x00,0x00,0x00,
  0x00,0x00,0x00,0x00};
