#define askozialogo_width 128
#define askozialogo_height 32
static char askozialogo_bits[] = {
  0x00, 0xF0, 0x17, 0x00, 0x00, 0x00, 0x00, 0x00, 0x00, 0x00, 0x00, 0x00, 
  0x00, 0x00, 0x00, 0x00, 0x00, 0xBE, 0x7F, 0x00, 0x00, 0x00, 0x00, 0x00, 
  0x00, 0x00, 0x00, 0x00, 0x00, 0x00, 0x00, 0x00, 0x80, 0x07, 0xE0, 0x01, 
  0x00, 0x00, 0x00, 0x00, 0x00, 0x00, 0x00, 0x00, 0x00, 0x00, 0x00, 0x00, 
  0xC0, 0x01, 0x00, 0x03, 0x00, 0x00, 0x00, 0x00, 0x00, 0x00, 0x00, 0x00, 
  0x00, 0x00, 0x00, 0x00, 0x60, 0x00, 0x00, 0x0E, 0x00, 0x00, 0x00, 0x00, 
  0x00, 0x00, 0x00, 0x00, 0x00, 0x00, 0x00, 0x00, 0x30, 0x00, 0x00, 0x0C, 
  0x00, 0x00, 0x00, 0x00, 0x00, 0x00, 0x00, 0x00, 0x00, 0x00, 0x00, 0x00, 
  0x18, 0x00, 0x00, 0x18, 0x00, 0x00, 0x00, 0x00, 0x00, 0x00, 0x00, 0x00, 
  0x00, 0x00, 0x00, 0x00, 0x1C, 0x00, 0x00, 0x30, 0x00, 0x00, 0x00, 0x00, 
  0x00, 0x00, 0x00, 0x00, 0x00, 0x00, 0x00, 0x00, 0x0C, 0x00, 0x00, 0x60, 
  0x00, 0x00, 0x00, 0x00, 0x00, 0x00, 0x00, 0x00, 0x00, 0x00, 0x00, 0x00, 
  0x06, 0xFC, 0x7F, 0x60, 0x00, 0x00, 0x00, 0x01, 0x00, 0x00, 0x00, 0x00, 
  0x00, 0x00, 0x00, 0x00, 0x06, 0xFF, 0xFF, 0x40, 0x80, 0x03, 0x00, 0x01, 
  0x00, 0x00, 0x30, 0x00, 0xFE, 0xF0, 0xE3, 0x60, 0x02, 0x0F, 0xF0, 0xC1, 
  0x80, 0x03, 0x80, 0x01, 0x00, 0x00, 0x18, 0x00, 0xC6, 0x59, 0xC7, 0x30, 
  0x83, 0x6F, 0xEC, 0xC1, 0x80, 0x02, 0x00, 0x01, 0x00, 0x00, 0x00, 0x00, 
  0x86, 0x19, 0x86, 0x39, 0x03, 0x6B, 0xBF, 0x81, 0xC0, 0x06, 0x08, 0x01, 
  0x10, 0x00, 0x00, 0x08, 0x86, 0x11, 0x84, 0x19, 0x83, 0xFF, 0xEF, 0x81, 
  0xC0, 0x06, 0x9F, 0x31, 0xFC, 0xFC, 0x13, 0x3F, 0x86, 0x19, 0x06, 0x1B, 
  0x03, 0xB8, 0x1A, 0xC0, 0x40, 0x04, 0x01, 0x1B, 0xC6, 0x80, 0x19, 0x30, 
  0x86, 0xF9, 0x07, 0x0F, 0x01, 0xB8, 0x3A, 0x80, 0x60, 0x8C, 0x01, 0x09, 
  0x83, 0x81, 0x30, 0x60, 0xFE, 0xF0, 0x07, 0x0E, 0x03, 0xBC, 0x3F, 0x80, 
  0x60, 0x0E, 0x87, 0x0F, 0x83, 0xE1, 0x10, 0x78, 0x7E, 0x18, 0x06, 0x0F, 
  0x03, 0xFC, 0x7B, 0xC0, 0xE0, 0x0F, 0x0E, 0x0F, 0x03, 0x61, 0x18, 0x6F, 
  0x06, 0x10, 0x0C, 0x1F, 0x03, 0xFC, 0x7F, 0xC0, 0x30, 0x18, 0x18, 0x19, 
  0x83, 0x31, 0x10, 0x61, 0x06, 0x38, 0x8C, 0x19, 0x02, 0xFE, 0x7F, 0xC0, 
  0x30, 0x18, 0xB0, 0x13, 0x83, 0x19, 0x90, 0x61, 0x06, 0x18, 0xCC, 0x31, 
  0x06, 0xFE, 0x7F, 0x40, 0x10, 0x10, 0x18, 0x31, 0xC6, 0x18, 0x38, 0x71, 
  0x06, 0x30, 0xC7, 0x30, 0x06, 0xFE, 0x7F, 0x60, 0x18, 0xB0, 0x8F, 0x61, 
  0x7C, 0xFC, 0x13, 0x6F, 0x06, 0xF8, 0x63, 0x60, 0x0C, 0x00, 0x00, 0x60, 
  0x00, 0x00, 0x00, 0x00, 0x00, 0x00, 0x00, 0x00, 0x00, 0x00, 0x00, 0x00, 
  0x18, 0x00, 0x00, 0x30, 0x00, 0x00, 0x00, 0x00, 0x00, 0x00, 0x00, 0x00, 
  0x00, 0x00, 0x00, 0x00, 0x18, 0x00, 0x00, 0x18, 0x00, 0x00, 0x00, 0x00, 
  0x00, 0x00, 0x00, 0x00, 0x00, 0x00, 0x00, 0x00, 0x30, 0x00, 0x00, 0x0C, 
  0x00, 0x00, 0x00, 0x00, 0x00, 0x00, 0x00, 0x00, 0x00, 0x00, 0x00, 0x00, 
  0xE0, 0x00, 0x00, 0x06, 0x00, 0x00, 0x00, 0x00, 0x00, 0x00, 0x00, 0x00, 
  0x00, 0x00, 0x00, 0x00, 0xC0, 0x01, 0x80, 0x03, 0x00, 0x00, 0x00, 0x00, 
  0x00, 0x00, 0x00, 0x00, 0x00, 0x00, 0x00, 0x00, 0x00, 0x07, 0xE0, 0x01, 
  0x00, 0x00, 0x00, 0x00, 0x00, 0x00, 0x00, 0x00, 0x00, 0x00, 0x00, 0x00, 
  0x00, 0xBE, 0x7D, 0x00, 0x00, 0x00, 0x00, 0x00, 0x00, 0x00, 0x00, 0x00, 
  0x00, 0x00, 0x00, 0x00, 0x00, 0xE0, 0x0F, 0x00, 0x00, 0x00, 0x00, 0x00, 
  0x00, 0x00, 0x00, 0x00, 0x00, 0x00, 0x00, 0x00, };
